<svg width="1080" height="1080" viewBox="0 0 1080 1080" fill="none" xmlns="http://www.w3.org/2000/svg">
<rect width="1080" height="1080" fill="white"/>
<rect x="40" y="40" width="1000" height="1000" stroke="black" stroke-width="39.8148"/>
<path d="M330.206 340.88C336.691 340.88 342.494 341.904 347.614 343.952C352.734 345.659 357.171 348.731 360.926 353.168C364.339 357.947 367.582 364.603 370.654 373.136L411.102 487.312C413.15 493.456 415.539 500.453 418.27 508.304C421.001 516.496 423.902 524.859 426.974 533.392C429.705 541.925 432.265 549.947 434.654 557.456C436.702 564.965 438.409 571.451 439.774 576.912H441.822C444.211 564.624 447.966 550.459 453.086 534.416C457.865 518.373 462.473 503.525 466.91 489.872L514.014 346H562.142L461.79 621.456L475.102 655.76C480.563 670.779 488.414 682.043 498.654 689.552C508.553 697.061 521.694 700.816 538.078 700.816C544.222 700.816 549.683 700.475 554.462 699.792C558.899 699.109 562.995 698.427 566.75 697.744V733.584C563.678 734.608 560.435 735.291 557.022 735.632C553.267 736.315 549.342 736.827 545.246 737.168C541.15 737.509 536.883 737.68 532.446 737.68C514.697 737.68 499.507 734.779 486.878 728.976C473.907 723.173 462.814 714.128 453.598 701.84C444.041 689.552 435.678 673.68 428.51 654.224L331.23 395.664C329.182 390.885 327.475 387.131 326.11 384.4C324.745 382.011 323.209 380.304 321.502 379.28C319.454 378.256 317.235 377.744 314.846 377.744C312.115 377.744 309.555 378.085 307.166 378.768C304.777 379.451 302.729 379.963 301.022 380.304V347.024C303.411 346 306.142 344.976 309.214 343.952C312.286 342.928 315.529 342.245 318.942 341.904C322.355 341.221 326.11 340.88 330.206 340.88Z" fill="black"/>
<path d="M750.794 738.12C744.309 738.12 738.506 737.096 733.386 735.048C728.266 733.341 723.829 730.269 720.074 725.832C716.661 721.053 713.418 714.397 710.346 705.864L669.898 591.688C667.85 585.544 665.461 578.547 662.73 570.696C659.999 562.504 657.098 554.141 654.026 545.608C651.295 537.075 648.735 529.053 646.346 521.544C644.298 514.035 642.591 507.549 641.226 502.088H639.178C636.789 514.376 633.034 528.541 627.914 544.584C623.135 560.627 618.527 575.475 614.09 589.128L566.986 733H518.858L619.21 457.544L605.898 423.24C600.437 408.221 592.586 396.957 582.346 389.448C572.447 381.939 559.306 378.184 542.922 378.184C536.778 378.184 531.317 378.525 526.538 379.208C522.101 379.891 518.005 380.573 514.25 381.256V345.416C517.322 344.392 520.565 343.709 523.978 343.368C527.733 342.685 531.658 342.173 535.754 341.832C539.85 341.491 544.117 341.32 548.554 341.32C566.303 341.32 581.493 344.221 594.122 350.024C607.093 355.827 618.186 364.872 627.402 377.16C636.959 389.448 645.322 405.32 652.49 424.776L749.77 683.336C751.818 688.115 753.525 691.869 754.89 694.6C756.255 696.989 757.791 698.696 759.498 699.72C761.546 700.744 763.765 701.256 766.154 701.256C768.885 701.256 771.445 700.915 773.834 700.232C776.223 699.549 778.271 699.037 779.978 698.696V731.976C777.589 733 774.858 734.024 771.786 735.048C768.714 736.072 765.471 736.755 762.058 737.096C758.645 737.779 754.89 738.12 750.794 738.12Z" fill="black"/>
</svg>
